<?xml version="1.0" standalone="no"?>
<!DOCTYPE svg PUBLIC "-//W3C//DTD SVG 20010904//EN"
 "http://www.w3.org/TR/2001/REC-SVG-20010904/DTD/svg10.dtd">
<svg version="1.0" xmlns="http://www.w3.org/2000/svg"
 width="560.000000pt" height="240.000000pt" viewBox="0 0 560.000000 240.000000"
 preserveAspectRatio="xMidYMid meet">
<metadata>
Created by potrace 1.16, written by Peter Selinger 2001-2019
</metadata>
<g transform="translate(0.000000,240.000000) scale(0.100000,-0.100000)"
fill="#000000" stroke="none">
<path d="M0 1200 l0 -1200 2800 0 2800 0 0 1201 c0 1082 -2 1200 -15 1189 -12
-10 -19 -10 -27 -2 -9 9 -448 12 -1754 12 -1638 0 -1742 -1 -1740 -17 2 -26
-34 -29 -41 -4 l-5 21 -839 0 c-584 0 -839 -3 -839 -11 0 -5 6 -7 13 -3 8 5 7
2 -2 -9 -12 -15 -11 -20 5 -39 11 -12 13 -18 5 -13 -7 4 -23 8 -35 9 -15 1
-22 9 -24 28 -3 22 0 27 12 22 9 -3 16 -1 16 5 0 6 -12 11 -26 11 -17 0 -23
-4 -18 -12 6 -10 4 -10 -7 0 -9 8 -53 12 -146 12 l-133 0 0 -1200z"/>
</g>
</svg>
